<?xml version="1.0" encoding="utf-8"?>
<svg version="1.1" xmlns="http://www.w3.org/2000/svg" xmlns:xlink="http://www.w3.org/1999/xlink" x="0px" y="0px" viewBox="0 0 1000 1000" enable-background="new 0 0 1000 1000" xml:space="preserve" preserveAspectRatio="xMinYMid meet">
<g>
<g transform="translate(0.000000,512.000000) scale(0.100000,-0.100000)">
<path d="M4530.6,5000.4C2374.2,4795.5,574,3152.4,185.2,1030.5c-300.7-1625.9,203-3240.3,1373.1-4399c1300.4-1290.8,3226.9-1742.7,4973.5-1166.3c739.2,243.2,1382.7,639.6,1932.3,1189.3c884.8,884.8,1384.6,2033.8,1432.5,3292.1c63.2,1715.9-773.7,3328.4-2225.3,4282.1C6767.4,4822.3,5626,5103.9,4530.6,5000.4z M5679.6,4353.1c915.4-153.2,1692.9-553.4,2347.9-1206.5c553.5-553.5,923.1-1196.9,1116.5-1940c109.1-415.6,134.1-624.3,134.1-1078.2c1.9-459.6-26.8-691.4-134.1-1101.2c-388.8-1486.1-1566.6-2663.9-3052.7-3052.7c-409.8-107.2-641.6-136-1101.2-134.1c-453.9,0-662.6,24.9-1078.2,134.1c-743.1,193.4-1386.5,563-1940,1116.5C1309.4-2242.4,909.1-1453.4,754-503.5c-46,294.9-46,951.8,1.9,1244.8C911,1696.9,1309.4,2482.1,1972,3146.6c725.8,725.8,1648.9,1156.7,2683.1,1250.5C4861.9,4416.3,5455.5,4389.5,5679.6,4353.1z"/>
<path d="M4773.8,134.2c-212.6-888.6-386.9-1620.2-386.9-1627.8c0-9.6,97.7-15.3,218.3-15.3c193.4,0,220.2,3.8,229.8,34.5c13.4,47.9,777.5,3202,777.5,3211.6c0,5.7-101.5,9.6-226,9.6h-226L4773.8,134.2z"/>
<path d="M3094.2,835.1L2021.8,369.8l-5.7-264.3l-5.7-266.2l743.1-323.6c409.8-176.2,896.3-388.8,1083.9-471.1l339-147.4l-3.8,308.3l-5.7,308.3l-731.6,289.2c-402.2,159-735.4,293-741.1,298.8c-7.7,5.7,323.6,139.8,735.4,296.8l746.9,285.4V996c0,170.4-1.9,310.2-3.8,308.3C4168.6,1302.4,3684.1,1091.7,3094.2,835.1z"/>
<path d="M5827.1,988.3l5.7-302.6L6574,396.6c407.9-157,743-291.1,743-296.8c0-5.7-335.1-139.8-743-298.8l-741.1-289.2l-5.7-306.4l-3.8-306.4l1082,469.2l1082,471.1V99.7v260.4l-1047.6,452C6361.4,1063,5875,1271.8,5855.8,1279.4C5825.2,1290.9,5823.3,1271.8,5827.1,988.3z"/>
</g>
</g>
</svg>